<svg xmlns="http://www.w3.org/2000/svg" xmlns:xlink="http://www.w3.org/1999/xlink" width="500" zoomAndPan="magnify" viewBox="0 0 375 374.999991" height="500" preserveAspectRatio="xMidYMid meet" version="1.0"><defs><clipPath id="6143202bc4"><path d="M 53.386719 41.5 L 357.886719 41.5 L 357.886719 355.75 L 53.386719 355.75 Z M 53.386719 41.5 " clip-rule="nonzero"/></clipPath><clipPath id="2180565509"><path d="M 70.636719 41.5 L 340.671875 41.5 C 345.246094 41.5 349.632812 43.316406 352.867188 46.554688 C 356.101562 49.789062 357.921875 54.175781 357.921875 58.75 L 357.921875 338.78125 C 357.921875 343.355469 356.101562 347.746094 352.867188 350.980469 C 349.632812 354.214844 345.246094 356.03125 340.671875 356.03125 L 70.636719 356.03125 C 66.0625 356.03125 61.671875 354.214844 58.4375 350.980469 C 55.203125 347.746094 53.386719 343.355469 53.386719 338.78125 L 53.386719 58.75 C 53.386719 54.175781 55.203125 49.789062 58.4375 46.554688 C 61.671875 43.316406 66.0625 41.5 70.636719 41.5 Z M 70.636719 41.5 " clip-rule="nonzero"/></clipPath><clipPath id="1ad42093e7"><path d="M 10.292969 272.796875 L 80.042969 272.796875 L 80.042969 328.296875 L 10.292969 328.296875 Z M 10.292969 272.796875 " clip-rule="nonzero"/></clipPath><clipPath id="7f57653397"><path d="M 27.542969 272.796875 L 62.808594 272.796875 C 67.382812 272.796875 71.769531 274.617188 75.003906 277.851562 C 78.238281 281.085938 80.054688 285.472656 80.054688 290.046875 L 80.054688 310.898438 C 80.054688 315.472656 78.238281 319.859375 75.003906 323.09375 C 71.769531 326.328125 67.382812 328.144531 62.808594 328.144531 L 27.542969 328.144531 C 22.96875 328.144531 18.582031 326.328125 15.34375 323.09375 C 12.109375 319.859375 10.292969 315.472656 10.292969 310.898438 L 10.292969 290.046875 C 10.292969 285.472656 12.109375 281.085938 15.34375 277.851562 C 18.582031 274.617188 22.96875 272.796875 27.542969 272.796875 Z M 27.542969 272.796875 " clip-rule="nonzero"/></clipPath><clipPath id="a54cd8d6b5"><path d="M 112.71875 11.011719 L 150.21875 11.011719 L 150.21875 71.757812 L 112.71875 71.757812 Z M 112.71875 11.011719 " clip-rule="nonzero"/></clipPath><clipPath id="60f1fe7de9"><path d="M 129.964844 11.011719 L 132.855469 11.011719 C 137.429688 11.011719 141.816406 12.828125 145.050781 16.0625 C 148.285156 19.296875 150.101562 23.683594 150.101562 28.257812 L 150.101562 54.738281 C 150.101562 59.3125 148.285156 63.699219 145.050781 66.933594 C 141.816406 70.167969 137.429688 71.988281 132.855469 71.988281 L 129.964844 71.988281 C 125.390625 71.988281 121.003906 70.167969 117.769531 66.933594 C 114.535156 63.699219 112.71875 59.3125 112.71875 54.738281 L 112.71875 28.257812 C 112.71875 23.683594 114.535156 19.296875 117.769531 16.0625 C 121.003906 12.828125 125.390625 11.011719 129.964844 11.011719 Z M 129.964844 11.011719 " clip-rule="nonzero"/></clipPath><clipPath id="52ec3c41a7"><path d="M 261.671875 11.011719 L 299.171875 11.011719 L 299.171875 71.757812 L 261.671875 71.757812 Z M 261.671875 11.011719 " clip-rule="nonzero"/></clipPath><clipPath id="624744449d"><path d="M 278.917969 11.011719 L 281.808594 11.011719 C 286.382812 11.011719 290.769531 12.828125 294.003906 16.0625 C 297.238281 19.296875 299.054688 23.683594 299.054688 28.257812 L 299.054688 54.738281 C 299.054688 59.3125 297.238281 63.699219 294.003906 66.933594 C 290.769531 70.167969 286.382812 71.988281 281.808594 71.988281 L 278.917969 71.988281 C 274.34375 71.988281 269.957031 70.167969 266.722656 66.933594 C 263.488281 63.699219 261.671875 59.3125 261.671875 54.738281 L 261.671875 28.257812 C 261.671875 23.683594 263.488281 19.296875 266.722656 16.0625 C 269.957031 12.828125 274.34375 11.011719 278.917969 11.011719 Z M 278.917969 11.011719 " clip-rule="nonzero"/></clipPath><clipPath id="a63ea0ea05"><path d="M 121.9375 230.410156 L 289.1875 230.410156 L 289.1875 307.65625 L 121.9375 307.65625 Z M 121.9375 230.410156 " clip-rule="nonzero"/></clipPath><clipPath id="2540078d02"><path d="M 139.1875 230.410156 L 272.113281 230.410156 C 276.6875 230.410156 281.078125 232.226562 284.3125 235.460938 C 287.546875 238.695312 289.363281 243.082031 289.363281 247.65625 L 289.363281 290.421875 C 289.363281 294.996094 287.546875 299.382812 284.3125 302.617188 C 281.078125 305.851562 276.6875 307.667969 272.113281 307.667969 L 139.1875 307.667969 C 134.613281 307.667969 130.222656 305.851562 126.988281 302.617188 C 123.753906 299.382812 121.9375 294.996094 121.9375 290.421875 L 121.9375 247.65625 C 121.9375 243.082031 123.753906 238.695312 126.988281 235.460938 C 130.222656 232.226562 134.613281 230.410156 139.1875 230.410156 Z M 139.1875 230.410156 " clip-rule="nonzero"/></clipPath><clipPath id="12adaeb26b"><path d="M 112.722656 97.085938 L 187.71875 97.085938 L 187.71875 170.585938 L 112.722656 170.585938 Z M 112.722656 97.085938 " clip-rule="nonzero"/></clipPath><clipPath id="8139248e15"><path d="M 129.96875 97.085938 L 170.246094 97.085938 C 174.820312 97.085938 179.207031 98.902344 182.441406 102.140625 C 185.675781 105.375 187.492188 109.761719 187.492188 114.335938 L 187.492188 153.339844 C 187.492188 157.914062 185.675781 162.300781 182.441406 165.535156 C 179.207031 168.769531 174.820312 170.585938 170.246094 170.585938 L 129.96875 170.585938 C 125.394531 170.585938 121.007812 168.769531 117.773438 165.535156 C 114.539062 162.300781 112.722656 157.914062 112.722656 153.339844 L 112.722656 114.335938 C 112.722656 109.761719 114.539062 105.375 117.773438 102.140625 C 121.007812 98.902344 125.394531 97.085938 129.96875 97.085938 Z M 129.96875 97.085938 " clip-rule="nonzero"/></clipPath><clipPath id="674df166c0"><path d="M 224.285156 97.085938 L 299.28125 97.085938 L 299.28125 170.585938 L 224.285156 170.585938 Z M 224.285156 97.085938 " clip-rule="nonzero"/></clipPath><clipPath id="d47c1a47f4"><path d="M 241.53125 97.085938 L 281.808594 97.085938 C 286.382812 97.085938 290.769531 98.902344 294.003906 102.140625 C 297.238281 105.375 299.054688 109.761719 299.054688 114.335938 L 299.054688 153.339844 C 299.054688 157.914062 297.238281 162.300781 294.003906 165.535156 C 290.769531 168.769531 286.382812 170.585938 281.808594 170.585938 L 241.53125 170.585938 C 236.957031 170.585938 232.570312 168.769531 229.335938 165.535156 C 226.101562 162.300781 224.285156 157.914062 224.285156 153.339844 L 224.285156 114.335938 C 224.285156 109.761719 226.101562 105.375 229.335938 102.140625 C 232.570312 98.902344 236.957031 97.085938 241.53125 97.085938 Z M 241.53125 97.085938 " clip-rule="nonzero"/></clipPath></defs><g clip-path="url(#6143202bc4)"><g clip-path="url(#2180565509)"><path stroke-linecap="butt" transform="matrix(0.75, 0, 0, 0.75, 53.386532, 41.50056)" fill="none" stroke-linejoin="miter" d="M 23.00025 -0.000746233 L 383.047149 -0.000746233 C 389.146108 -0.000746233 394.995066 2.421129 399.307567 6.738838 C 403.620067 11.051338 406.04715 16.900297 406.04715 22.999255 L 406.04715 396.37428 C 406.04715 402.473239 403.620067 408.327406 399.307567 412.639906 C 394.995066 416.952406 389.146108 419.374281 383.047149 419.374281 L 23.00025 419.374281 C 16.901292 419.374281 11.047124 416.952406 6.734624 412.639906 C 2.422124 408.327406 0.000248741 402.473239 0.000248741 396.37428 L 0.000248741 22.999255 C 0.000248741 16.900297 2.422124 11.051338 6.734624 6.738838 C 11.047124 2.421129 16.901292 -0.000746233 23.00025 -0.000746233 Z M 23.00025 -0.000746233 " stroke="#000000" stroke-width="82" stroke-opacity="1" stroke-miterlimit="4"/></g></g><g clip-path="url(#1ad42093e7)"><g clip-path="url(#7f57653397)"><path stroke-linecap="butt" transform="matrix(0.75, 0, 0, 0.75, 10.294035, 272.798303)" fill="none" stroke-linejoin="miter" d="M 22.998579 -0.00190385 L 70.019412 -0.00190385 C 76.11837 -0.00190385 81.967329 2.425179 86.279829 6.737679 C 90.592329 11.05018 93.014204 16.899138 93.014204 22.998096 L 93.014204 50.80018 C 93.014204 56.899138 90.592329 62.748096 86.279829 67.060596 C 81.967329 71.373096 76.11837 73.794971 70.019412 73.794971 L 22.998579 73.794971 C 16.89962 73.794971 11.050662 71.373096 6.732954 67.060596 C 2.420454 62.748096 -0.00142149 56.899138 -0.00142149 50.80018 L -0.00142149 22.998096 C -0.00142149 16.899138 2.420454 11.05018 6.732954 6.737679 C 11.050662 2.425179 16.89962 -0.00190385 22.998579 -0.00190385 Z M 22.998579 -0.00190385 " stroke="#000000" stroke-width="82" stroke-opacity="1" stroke-miterlimit="4"/></g></g><g clip-path="url(#a54cd8d6b5)"><g clip-path="url(#60f1fe7de9)"><path stroke-linecap="butt" transform="matrix(0.75, 0, 0, 0.75, 112.719115, 11.010111)" fill="none" stroke-linejoin="miter" d="M 22.994305 0.00214383 L 26.848472 0.00214383 C 32.94743 0.00214383 38.796389 2.424019 43.108889 6.736519 C 47.421389 11.049019 49.843264 16.897977 49.843264 22.996936 L 49.843264 58.304227 C 49.843264 64.403186 47.421389 70.252144 43.108889 74.564644 C 38.796389 78.877144 32.94743 81.304227 26.848472 81.304227 L 22.994305 81.304227 C 16.895347 81.304227 11.046389 78.877144 6.733889 74.564644 C 2.421389 70.252144 -0.000486264 64.403186 -0.000486264 58.304227 L -0.000486264 22.996936 C -0.000486264 16.897977 2.421389 11.049019 6.733889 6.736519 C 11.046389 2.424019 16.895347 0.00214383 22.994305 0.00214383 Z M 22.994305 0.00214383 " stroke="#000000" stroke-width="82" stroke-opacity="1" stroke-miterlimit="4"/></g></g><g clip-path="url(#52ec3c41a7)"><g clip-path="url(#624744449d)"><path stroke-linecap="butt" transform="matrix(0.75, 0, 0, 0.75, 261.671735, 11.010111)" fill="none" stroke-linejoin="miter" d="M 22.994978 0.00214383 L 26.849145 0.00214383 C 32.948103 0.00214383 38.797061 2.424019 43.109561 6.736519 C 47.422061 11.049019 49.843936 16.897977 49.843936 22.996936 L 49.843936 58.304227 C 49.843936 64.403186 47.422061 70.252144 43.109561 74.564644 C 38.797061 78.877144 32.948103 81.304227 26.849145 81.304227 L 22.994978 81.304227 C 16.89602 81.304227 11.047061 78.877144 6.734561 74.564644 C 2.422061 70.252144 0.000186244 64.403186 0.000186244 58.304227 L 0.000186244 22.996936 C 0.000186244 16.897977 2.422061 11.049019 6.734561 6.736519 C 11.047061 2.424019 16.89602 0.00214383 22.994978 0.00214383 Z M 22.994978 0.00214383 " stroke="#000000" stroke-width="82" stroke-opacity="1" stroke-miterlimit="4"/></g></g><g clip-path="url(#a63ea0ea05)"><g clip-path="url(#2540078d02)"><path stroke-linecap="butt" transform="matrix(0.75, 0, 0, 0.75, 121.937596, 230.408246)" fill="none" stroke-linejoin="miter" d="M 22.999874 0.00254744 L 200.234261 0.00254744 C 206.333219 0.00254744 212.187386 2.424423 216.499887 6.736923 C 220.812387 11.049423 223.234262 16.898382 223.234262 22.997341 L 223.234262 80.018178 C 223.234262 86.117136 220.812387 91.966095 216.499887 96.278595 C 212.187386 100.591096 206.333219 103.012971 200.234261 103.012971 L 22.999874 103.012971 C 16.900915 103.012971 11.046748 100.591096 6.734248 96.278595 C 2.421748 91.966095 -0.00012759 86.117136 -0.00012759 80.018178 L -0.00012759 22.997341 C -0.00012759 16.898382 2.421748 11.049423 6.734248 6.736923 C 11.046748 2.424423 16.900915 0.00254744 22.999874 0.00254744 Z M 22.999874 0.00254744 " stroke="#000000" stroke-width="82" stroke-opacity="1" stroke-miterlimit="4"/></g></g><g clip-path="url(#12adaeb26b)"><g clip-path="url(#8139248e15)"><path stroke-linecap="butt" transform="matrix(0.75, 0, 0, 0.75, 112.722295, 97.08709)" fill="none" stroke-linejoin="miter" d="M 22.995277 -0.00153723 L 76.698409 -0.00153723 C 82.797368 -0.00153723 88.646327 2.420338 92.958827 6.738047 C 97.271328 11.050548 99.693203 16.899507 99.693203 22.998466 L 99.693203 75.003681 C 99.693203 81.10264 97.271328 86.951599 92.958827 91.2641 C 88.646327 95.5766 82.797368 97.998475 76.698409 97.998475 L 22.995277 97.998475 C 16.896318 97.998475 11.047359 95.5766 6.734858 91.2641 C 2.422357 86.951599 0.00048207 81.10264 0.00048207 75.003681 L 0.00048207 22.998466 C 0.00048207 16.899507 2.422357 11.050548 6.734858 6.738047 C 11.047359 2.420338 16.896318 -0.00153723 22.995277 -0.00153723 Z M 22.995277 -0.00153723 " stroke="#000000" stroke-width="82" stroke-opacity="1" stroke-miterlimit="4"/></g></g><g clip-path="url(#674df166c0)"><g clip-path="url(#d47c1a47f4)"><path stroke-linecap="butt" transform="matrix(0.75, 0, 0, 0.75, 224.284487, 97.08709)" fill="none" stroke-linejoin="miter" d="M 22.995686 -0.00153723 L 76.698818 -0.00153723 C 82.797778 -0.00153723 88.646737 2.420338 92.959237 6.738047 C 97.271738 11.050548 99.693613 16.899507 99.693613 22.998466 L 99.693613 75.003681 C 99.693613 81.10264 97.271738 86.951599 92.959237 91.2641 C 88.646737 95.5766 82.797778 97.998475 76.698818 97.998475 L 22.995686 97.998475 C 16.896727 97.998475 11.047768 95.5766 6.735268 91.2641 C 2.422767 86.951599 0.000891837 81.10264 0.000891837 75.003681 L 0.000891837 22.998466 C 0.000891837 16.899507 2.422767 11.050548 6.735268 6.738047 C 11.047768 2.420338 16.896727 -0.00153723 22.995686 -0.00153723 Z M 22.995686 -0.00153723 " stroke="#000000" stroke-width="82" stroke-opacity="1" stroke-miterlimit="4"/></g></g></svg>