<?xml version="1.0" encoding="UTF-8"?>
<svg version="1.1" xmlns="http://www.w3.org/2000/svg" width="800" height="800">
<path d="M0 0 C21.45 0 42.9 0 65 0 C65.33 28.05 65.66 56.1 66 85 C73.92 80.05 73.92 80.05 82 75 C153.35326877 32.65849985 241.59149837 13.23662715 324 27 C325.22944336 27.20399414 326.45888672 27.40798828 327.72558594 27.61816406 C362.85522684 33.62614596 396.83908474 43.5033003 429 59 C429.87285645 59.41330566 430.74571289 59.82661133 431.64501953 60.25244141 C464.5299542 75.86970186 494.09953921 96.73200817 520.56396484 121.66113281 C522.75904984 123.70768944 525.00587864 125.69502358 527.25 127.6875 C534.67525075 134.3545809 541.52214593 141.41710024 548 149 C548.89238203 150.01767055 549.78568697 151.03453222 550.6796875 152.05078125 C562.7427927 165.83433594 573.37915423 180.41799002 583 196 C583.51175781 196.82741699 584.02351562 197.65483398 584.55078125 198.50732422 C609.36223345 238.90139467 625.91225198 282.28347163 634 329 C634.1753125 330.00321289 634.350625 331.00642578 634.53125 332.04003906 C642.03260107 375.86737726 637.82656934 420.25547182 632 464 C631.86513184 465.01775513 631.73026367 466.03551025 631.59130859 467.08410645 C630.83164787 472.79570695 630.05178157 478.50411869 629.24893188 484.20980835 C629.00076197 485.97863418 628.75543506 487.74786135 628.51303101 489.51748657 C626.36786209 505.14079571 626.36786209 505.14079571 624.20703125 512.69140625 C619.44972997 529.90647098 626.04154043 542.27133663 633.46630859 557.57266235 C637.72714567 566.38514175 641.477169 575.40007488 645.23751831 584.4347229 C647.24572346 589.2507687 649.27903692 594.05620497 651.30859375 598.86328125 C652.10681061 600.75723887 652.90482769 602.6512807 653.70263672 604.54541016 C654.28038849 605.91708344 654.28038849 605.91708344 654.86981201 607.31646729 C655.24277405 608.20203308 655.61573608 609.08759888 656 610 C656.35233704 610.83658142 656.70467407 611.67316284 657.06768799 612.53509521 C658.07775576 614.93352008 659.08772759 617.33198531 660.09765625 619.73046875 C660.42349701 620.50425873 660.74933777 621.27804871 661.08505249 622.07528687 C662.69393245 625.89638302 664.30191154 629.71785405 665.90820312 633.54003906 C669.20512601 641.3821107 672.51479198 649.21852454 675.84555054 657.04629517 C677.61292248 661.20055642 679.37693044 665.3562429 681.14086914 669.51196289 C681.99916823 671.53125249 682.8591701 673.54981925 683.72094727 675.56762695 C684.92107795 678.37793492 686.11540569 681.19064505 687.30859375 684.00390625 C687.66819687 684.84168106 688.02779999 685.67945587 688.39830017 686.5426178 C692.62787028 696.55315872 692.93205094 704.75283695 689 715 C685.62234421 721.38001649 680.00292837 726.92221928 673.375 729.9375 C661.9148254 733.35681714 647.76500182 730.55280657 636.0078125 729.53125 C634.13690501 729.373097 632.26595224 729.21547887 630.3949585 729.05834961 C626.39303932 728.7211925 622.39144809 728.38044987 618.39007568 728.03686523 C612.05111842 727.49272637 605.71141669 726.95763334 599.37158203 726.42382812 C584.77150078 725.19315715 570.17241622 723.950827 555.57333374 722.70837402 C542.18335359 721.56894343 528.79317213 720.43202997 515.40218163 719.30452728 C509.11169875 718.77453988 502.82172944 718.23892187 496.53210449 717.69885254 C492.60720378 717.36301948 488.68190059 717.03208686 484.75647736 716.7024231 C482.94965548 716.54968743 481.14300008 716.39496595 479.33654022 716.23800659 C457.96562179 713.75374653 457.96562179 713.75374653 438.125 720.375 C436.12277828 721.49209674 434.11611919 722.60127123 432.10546875 723.703125 C431.09274902 724.26064453 430.0800293 724.81816406 429.03662109 725.39257812 C399.63584865 740.9557463 365.41777029 750.18178838 332.8125 755.75 C331.65041016 755.94891846 330.48832031 756.14783691 329.29101562 756.3527832 C310.05621565 759.4612357 290.96641124 760.37882931 271.5 760.3125 C270.35803162 760.31034485 269.21606323 760.3081897 268.03948975 760.30596924 C198.49471702 760.09574671 127.87924858 740.29728249 70 701 C69.16742676 700.43635742 68.33485352 699.87271484 67.47705078 699.29199219 C51.8975424 688.6870346 37.40010708 677.62116346 23.7890625 664.578125 C20.55381835 661.48700661 17.20938436 658.54366834 13.83007812 655.61181641 C7.7374073 650.24577949 2.14253334 644.32945776 -3.1171875 638.15234375 C-4.50182012 636.56949609 -5.93068453 635.02506981 -7.3828125 633.50390625 C-25.54465973 614.41543416 -40.52344839 591.41568105 -52.82763672 568.1875 C-53.98173667 566.03407735 -55.17478786 563.90703318 -56.37890625 561.78125 C-101.36844526 481.13945227 -109.01656854 379.86411616 -84.18800354 291.76791382 C-83.58734607 289.6567024 -82.98215634 287.54685098 -82.375 285.4375 C-82.18104645 284.75997681 -81.9870929 284.08245361 -81.78726196 283.38439941 C-81.22759941 281.44030531 -80.6569414 279.49938704 -80.0859375 277.55859375 C-79.7564209 276.43767334 -79.4269043 275.31675293 -79.08740234 274.16186523 C-75.75869878 264.48291602 -75.75869878 264.48291602 -71 262 C-68.34277344 261.7512207 -68.34277344 261.7512207 -65.359375 261.92578125 C-64.28945312 261.98056641 -63.21953125 262.03535156 -62.1171875 262.09179688 C-61.00601563 262.16462891 -59.89484375 262.23746094 -58.75 262.3125 C-57.06003906 262.4043457 -57.06003906 262.4043457 -55.3359375 262.49804688 C-52.55616267 262.65117006 -49.77807613 262.81900029 -47 263 C-47 263.66 -47 264.32 -47 265 C-46.01 265 -45.02 265 -44 265 C-44 265.66 -44 266.32 -44 267 C-43.401875 267.103125 -42.80375 267.20625 -42.1875 267.3125 C-39.68741714 268.09824033 -38.62464918 268.96918853 -37 271 C-37 271.66 -37 272.32 -37 273 C-36.34 273 -35.68 273 -35 273 C-33.8762056 275.05361881 -32.7770731 277.1157765 -31.6875 279.1875 C-31.07261719 280.33605469 -30.45773438 281.48460937 -29.82421875 282.66796875 C-24.93884549 293.40896275 -24.55768029 301.77211052 -28.0625 312.9375 C-28.7405054 315.30945415 -29.41230678 317.6831898 -30.078125 320.05859375 C-30.41005859 321.2276123 -30.74199219 322.39663086 -31.08398438 323.60107422 C-32.41145428 328.52672348 -33.41519325 333.48027737 -34.3125 338.5 C-34.45888916 339.2849585 -34.60527832 340.06991699 -34.75610352 340.87866211 C-37.63434175 357.35611554 -38.37707755 373.80255993 -38.3125 390.5 C-38.31034485 391.5077951 -38.3081897 392.51559021 -38.30596924 393.55392456 C-38.01779534 477.7881555 -3.73366323 555.12863869 55 615 C56.8633085 616.77909117 58.75450232 618.46225403 60.734375 620.109375 C62.63224656 621.69311609 64.48316871 623.30884098 66.328125 624.953125 C73.98294908 631.74781133 81.78811779 638.04602945 90.24951172 643.80712891 C91.99882281 644.9991978 93.73574553 646.20792582 95.47265625 647.41796875 C137.08146331 676.0912176 186.60879211 695.06809455 237 700 C238.27544678 700.12701294 238.27544678 700.12701294 239.57666016 700.2565918 C303.8597452 705.98085238 370.34088594 693.14898256 426.20532227 660.17260742 C439.15886838 652.61807048 453.25346105 654.94039817 467.65332031 656.17749023 C469.17752335 656.30440319 470.70176577 656.43084396 472.2260437 656.55685425 C476.3253389 656.89709565 480.42404939 657.24394999 484.52267551 657.59214664 C488.83159615 657.95711313 493.14101617 658.3160889 497.45037842 658.67579651 C504.67946142 659.28005527 511.90820287 659.88826355 519.13671875 660.49926758 C529.31113729 661.35926609 539.48618898 662.21158409 549.66136026 663.0626229 C556.73764193 663.6547865 563.81375983 664.24890315 570.88985348 664.84330869 C572.59810553 664.98678204 574.3063632 665.13018847 576.0146265 665.27352786 C580.88361525 665.68211229 585.75249861 666.09191063 590.62121964 666.50367355 C592.09129293 666.62783245 593.56139986 666.75159376 595.03154373 666.87491417 C602.36703727 667.49055798 609.6888932 668.13945803 617 669 C616.7380484 668.41460953 616.4760968 667.82921906 616.20620728 667.22608948 C608.27507474 649.48425183 600.72653804 631.58542528 593.18534851 613.67546082 C592.77613663 612.70361343 592.36692474 611.73176605 591.9453125 610.73046875 C591.53525467 609.75648636 591.12519684 608.78250397 590.70271301 607.77900696 C587.89515962 601.11420519 585.07398221 594.45531758 582.2421875 587.80078125 C581.86081635 586.90455551 581.47944519 586.00832977 581.08651733 585.08494568 C579.29082619 580.86643811 577.49351239 576.64862693 575.69482422 572.43139648 C572.45832298 564.83697865 569.24331181 557.2338244 566.078125 549.609375 C565.63457672 548.54870819 565.63457672 548.54870819 565.18206787 547.46661377 C560.25967038 535.54944104 561.95374952 524.81891873 564.5625 512.4375 C569.17243269 489.47217746 572.05308953 466.22584212 575 443 C575.11813049 442.07761536 575.23626099 441.15523071 575.35797119 440.20489502 C579.23879577 409.80730999 581.03966565 379.51142236 577 349 C576.87641113 348.03400879 576.75282227 347.06801758 576.62548828 346.07275391 C568.72988185 286.22884236 541.51845791 232.11675442 502.45166016 186.69873047 C500.92750374 184.91516499 499.42161314 183.11728815 497.91796875 181.31640625 C492.64290513 175.02541058 487.44567552 169.13174936 481 164 C480.2059375 163.34257812 479.411875 162.68515625 478.59375 162.0078125 C476.7642549 160.49578861 474.92648986 158.99373392 473.08203125 157.5 C470.94120552 155.76346202 468.8156941 154.01547116 466.69921875 152.25 C456.33264505 143.68310852 445.30523788 136.26667174 434 129 C433.3512793 128.5762207 432.70255859 128.15244141 432.03417969 127.71582031 C385.26741365 97.29018716 327.44279167 82.4615213 272 82.6875 C270.59634689 82.69023422 270.59634689 82.69023422 269.16433716 82.69302368 C253.59481672 82.74382929 238.39710596 83.52673701 223 86 C221.95247559 86.16097168 220.90495117 86.32194336 219.82568359 86.48779297 C185.9715671 91.83155874 150.5314679 103.28111926 121 121 C143.77 121.33 166.54 121.66 190 122 C190.80719723 142.98712805 191 163.99735466 191 185 C127.97 185 64.94 185 0 185 C0 123.95 0 62.9 0 0 Z " fill="#000000" transform="translate(103,8)"/>
</svg>
